<svg xmlns="http://www.w3.org/2000/svg" viewBox="0 0 640 420" fill="none">
  <rect width="640" height="420" rx="36" fill="#163620"/>
  <path d="M140 297C140 267.729 163.729 244 193 244C222.271 244 246 267.729 246 297C246 326.271 222.271 350 193 350C163.729 350 140 326.271 140 297Z" stroke="#F8FAFC" stroke-width="18"/>
  <path d="M394 297C394 267.729 417.729 244 447 244C476.271 244 500 267.729 500 297C500 326.271 476.271 350 447 350C417.729 350 394 326.271 394 297Z" stroke="#F8FAFC" stroke-width="18"/>
  <path d="M230 286H372L417 204H304L265 174H220" stroke="#22C55E" stroke-width="22" stroke-linecap="round" stroke-linejoin="round"/>
  <path d="M314 203L355 286" stroke="#F8FAFC" stroke-width="18" stroke-linecap="round"/>
  <path d="M299 198H435" stroke="#F8FAFC" stroke-width="18" stroke-linecap="round"/>
  <path d="M96 136C155 93.3333 247.5 58.6 353.5 105" stroke="#DCFCE7" stroke-width="18" stroke-linecap="round" opacity=".5"/>
</svg>
